<?xml version="1.0" standalone="no"?><!DOCTYPE svg PUBLIC "-//W3C//DTD SVG 1.1//EN" "http://www.w3.org/Graphics/SVG/1.1/DTD/svg11.dtd"><svg t="1617617110075" class="icon" viewBox="0 0 1158 1024" version="1.1" xmlns="http://www.w3.org/2000/svg" p-id="2500" xmlns:xlink="http://www.w3.org/1999/xlink" width="144.75" height="128"><defs><style type="text/css"></style></defs><path d="M1118.315789 1024H40.421053a40.421053 40.421053 0 0 1-40.421053-40.421053V40.421053a40.421053 40.421053 0 0 1 40.421053-40.421053h1077.894736a40.421053 40.421053 0 0 1 40.421053 40.421053v943.157894a40.421053 40.421053 0 0 1-40.421053 40.421053zM80.842105 943.157895h997.052632V80.842105H80.842105z" p-id="2501"></path><path d="M460.173474 738.748632l168.421052-291.718737 70.016 40.421052-168.421052 291.718737zM785.785263 784.572632l-57.195789-57.19579L842.913684 613.052632l-114.32421-114.324211 57.195789-57.195789L957.237895 613.052632l-171.452632 171.52zM372.951579 784.572632L201.498947 613.052632l171.452632-171.52 57.195789 57.195789L315.823158 613.052632l114.32421 114.32421-57.195789 57.19579zM40.421053 222.315789h1077.894736v40.421053H40.421053z" p-id="2502"></path></svg>